<?xml version="1.0" encoding="UTF-8" standalone="no"?>
<!-- Created with Inkscape (http://www.inkscape.org/) -->

<svg
   width="289"
   height="64"
   viewBox="0 0 76.464541 16.933333"
   version="1.1"
   id="svg5"
   inkscape:version="1.2.2 (b0a8486541, 2022-12-01)"
   sodipodi:docname="logo.svg"
   inkscape:export-filename="favicon2.webp"
   inkscape:export-xdpi="96"
   inkscape:export-ydpi="96"
   xmlns:inkscape="http://www.inkscape.org/namespaces/inkscape"
   xmlns:sodipodi="http://sodipodi.sourceforge.net/DTD/sodipodi-0.dtd"
   xmlns="http://www.w3.org/2000/svg"
   xmlns:svg="http://www.w3.org/2000/svg">
  <sodipodi:namedview
     id="namedview7"
     pagecolor="#ffffff"
     bordercolor="#000000"
     borderopacity="0.25"
     inkscape:showpageshadow="2"
     inkscape:pageopacity="0.0"
     inkscape:pagecheckerboard="true"
     inkscape:deskcolor="#d1d1d1"
     inkscape:document-units="px"
     showgrid="false"
     inkscape:zoom="2.2496776"
     inkscape:cx="146.02092"
     inkscape:cy="94.680233"
     inkscape:window-width="1522"
     inkscape:window-height="991"
     inkscape:window-x="26"
     inkscape:window-y="23"
     inkscape:window-maximized="0"
     inkscape:current-layer="layer1" />
  <defs
     id="defs2" />
  <g
     inkscape:label="Ebene 1"
     inkscape:groupmode="layer"
     id="layer1">
    <rect
       style="fill:#581c87;fill-opacity:1;stroke:none;stroke-width:3.80157;stroke-dasharray:none;stroke-opacity:1;paint-order:stroke fill markers"
       id="rect4226"
       width="14.456802"
       height="14.66739"
       x="2.6886528"
       y="1.2563031"
       transform="matrix(1,0,-0.16884606,0.98564243,0,0)" />
    <text
       xml:space="preserve"
       style="font-weight:bold;font-size:10.5833px;font-family:'Liberation Sans';-inkscape-font-specification:'Liberation Sans Bold';letter-spacing:-0.661458px;word-spacing:0px;display:none;fill:#ffffff;fill-opacity:1;stroke:none;stroke-width:4.23333;stroke-dasharray:none;stroke-opacity:1"
       x="0.74027044"
       y="12.170821"
       id="text236"><tspan
         sodipodi:role="line"
         id="tspan234"
         style="font-style:italic;font-variant:normal;font-weight:900;font-stretch:normal;font-size:10.5833px;font-family:'Jost*';-inkscape-font-specification:'Jost* Heavy Italic';fill:#ffffff;fill-opacity:1;stroke:none;stroke-width:4.23333;stroke-dasharray:none;stroke-opacity:1;paint-order:stroke fill markers"
         x="0"
         y="0">NP</tspan></text>
    <g
       aria-label="NP"
       id="text955"
       style="font-weight:bold;font-size:10.5833px;font-family:'Liberation Sans';-inkscape-font-specification:'Liberation Sans Bold';letter-spacing:-0.661458px;word-spacing:0px;fill:#ffffff;stroke-width:4.23333">
      <path
         d="M 7.1008335,4.7625114 6.5081687,8.1280007 2.4759316,4.4132626 1.1530191,12.170821 h 2.190743 L 3.9258436,8.8053319 7.9686641,12.52007 9.2915765,4.7625114 Z"
         style="font-style:italic;font-weight:900;font-family:'Jost*';-inkscape-font-specification:'Jost* Heavy Italic';paint-order:stroke fill markers"
         id="path957" />
      <path
         d="M 10.027115,4.7625114 8.7571193,12.170821 h 2.2965757 l 0.391582,-2.3283257 h 0.624415 C 13.985269,9.8213287 15.308182,8.9429148 15.456348,7.3025034 15.604514,5.6832585 14.662601,4.783678 12.79994,4.7625114 Z m 2.571742,1.8414942 c 0.486832,0.010583 0.751414,0.2645825 0.677331,0.6879145 -0.08467,0.4550818 -0.507998,0.6984977 -1.015996,0.6984977 h -0.497416 l 0.243416,-1.3864122 z"
         style="font-style:italic;font-weight:900;font-family:'Jost*';-inkscape-font-specification:'Jost* Heavy Italic';paint-order:stroke fill markers"
         id="path959" />
    </g>
    <text
       xml:space="preserve"
       style="font-style:italic;font-weight:900;font-size:12.7px;font-family:'Jost*';-inkscape-font-specification:'Jost* Heavy Italic';letter-spacing:-0.132292px;display:none;fill:#581c87;stroke-width:4.23333;paint-order:stroke fill markers"
       x="18.582167"
       y="13.332879"
       id="text293"
       inkscape:label="title"><tspan
         sodipodi:role="line"
         id="tspan291"
         style="font-style:italic;font-variant:normal;font-weight:bold;font-stretch:normal;font-size:12.7px;font-family:'Jost*';-inkscape-font-specification:'Jost* Bold Italic';stroke-width:4.23333"
         x="18.582167"
         y="13.332879">Nitropage</tspan></text>
    <g
       aria-label="Nitropage"
       id="text432"
       style="font-style:italic;font-weight:900;font-size:12.7px;font-family:'Jost*';-inkscape-font-specification:'Jost* Heavy Italic';letter-spacing:-0.132292px;display:inline;fill:#581c87;stroke-width:4.23333;paint-order:stroke fill markers"
       inkscape:label="title">
      <path
         d="m 26.608567,4.4428792 -0.8636,5.0164999 -5.0292,-5.4355999 -1.5875,9.3090998 h 2.032 l 0.8763,-5.0164999 5.0165,5.4355999 1.6002,-9.3090998 z"
         style="font-weight:bold;-inkscape-font-specification:'Jost* Bold Italic'"
         id="path434" />
      <path
         d="m 29.841781,5.3064792 c 0,0.6096 0.4953,1.0287 1.1176,1.0287 0.6223,0 1.1176,-0.4191 1.1176,-1.0287 0,-0.6096 -0.4953,-1.0414 -1.1176,-1.0414 -0.6223,0 -1.1176,0.4318 -1.1176,1.0414 z m -0.1905,2.1844 -0.9906,5.8419998 h 1.8415 l 1.0033,-5.8419998 z"
         style="font-weight:bold;-inkscape-font-specification:'Jost* Bold Italic'"
         id="path436" />
      <path
         d="m 32.211384,7.4908792 -0.2794,1.5874999 h 0.9906 l -0.7239,4.2544999 h 1.8161 l 0.7366,-4.2544999 h 1.0033 l 0.2794,-1.5874999 h -1.0033 l 0.3429,-2.032 h -1.8288 l -0.3429,2.032 z"
         style="font-weight:bold;-inkscape-font-specification:'Jost* Bold Italic'"
         id="path438" />
      <path
         d="m 39.876899,9.4720791 1.0541,-1.6129 c -0.2413,-0.2920999 -0.5715,-0.5079999 -0.9906,-0.5079999 -0.5715,0 -1.143,0.381 -1.5621,0.9397999 l 0.1397,-0.8000999 h -1.8669 l -1.0033,5.8419998 h 1.8542 l 0.5334,-3.0353 c 0.1397,-0.6222999 0.5969,-1.1683999 1.1811,-1.1556999 0.2921,0.0127 0.4826,0.1524 0.6604,0.3302 z"
         style="font-weight:bold;-inkscape-font-specification:'Jost* Bold Italic'"
         id="path440" />
      <path
         d="m 40.67172,10.411879 c -0.2286,1.7526 1.0287,3.048 2.8448,3.048 1.8542,0 3.429,-1.2573 3.6703,-3.048 0.2286,-1.7525999 -1.0287,-3.0479998 -2.8448,-3.0479998 -1.8542,0 -3.429,1.2572999 -3.6703,3.0479998 z m 1.9431,0 c 0.1143,-0.8000999 0.8001,-1.4858999 1.5875,-1.4604999 0.762,0.0127 1.1557,0.6985 1.0414,1.4604999 -0.1143,0.8001 -0.8128,1.4732 -1.5875,1.4605 -0.762,-0.0127 -1.1557,-0.6985 -1.0414,-1.4605 z"
         style="font-weight:bold;-inkscape-font-specification:'Jost* Bold Italic'"
         id="path442" />
      <path
         d="m 48.972235,16.126879 0.6477,-3.8481 c 0.2667,0.7366 0.8255,1.2573 1.7653,1.2573 1.5748,0.0127 2.9464,-1.3335 3.1877,-3.1242 0.2159,-1.7144999 -0.6604,-3.1241998 -2.2352,-3.1241998 -0.8636,0.0127 -1.5494,0.4191 -2.0447,1.0540999 l 0.1397,-0.8508999 h -1.8923 l -1.4859,8.6359998 z m 3.6195,-5.7277 c -0.127,0.8128 -0.8636,1.4605 -1.6383,1.4351 -0.7112,-0.0254 -1.1176,-0.635 -1.016,-1.4097 0.127,-0.8254999 0.8763,-1.4477999 1.5875,-1.4350999 0.7747,0.0254 1.1938,0.635 1.0668,1.4096999 z"
         style="font-weight:bold;-inkscape-font-specification:'Jost* Bold Italic'"
         id="path444" />
      <path
         d="m 55.189938,10.411879 c -0.2159,1.6764 0.6985,3.048 2.2479,3.0353 0.8255,0 1.5367,-0.381 2.0574,-0.9906 l -0.1524,0.8763 h 1.8669 l 1.016,-5.8419998 h -1.8923 l -0.1778,1.0667999 c -0.3048,-0.7112 -0.889,-1.1937999 -1.7907,-1.1937999 -1.5621,0 -2.9464,1.3080999 -3.175,3.0479998 z m 1.9685,0 c 0.1397,-0.8127999 0.8636,-1.5239999 1.6637,-1.4985999 0.7112,0.0254 1.1049,0.7239 0.9906,1.4985999 -0.127,0.8255 -0.8636,1.5113 -1.6002,1.4986 -0.7747,-0.0127 -1.1684,-0.7239 -1.0541,-1.4986 z"
         style="font-weight:bold;-inkscape-font-specification:'Jost* Bold Italic'"
         id="path446" />
      <path
         d="m 62.182341,13.751979 c -0.0127,1.5875 0.9271,2.6162 2.8575,2.6162 1.8796,-0.0127 3.2766,-1.143 3.5941,-3.1623 l 0.9779,-5.7149998 h -1.8288 l -0.1778,0.9905999 c -0.3048,-0.6731 -0.9017,-1.1175999 -1.778,-1.1175999 -1.5494,0 -2.9337,1.2191999 -3.1623,2.9590998 -0.2159,1.6891 0.7239,2.9845 2.2606,2.9718 0.8001,0 1.4986,-0.3429 2.0066,-0.9017 l -0.1397,0.8128 c -0.1397,0.9398 -0.8509,1.6256 -1.7272,1.6129 -0.7112,0 -1.0541,-0.3937 -1.0668,-1.0541 z m 2.4511,-3.4163 c 0.127,-0.8000999 0.8255,-1.4350999 1.651,-1.4223999 0.6731,0.0127 1.0795,0.5715 1.0287,1.3080999 l -0.0508,0.2794 c -0.2032,0.7366 -0.889,1.27 -1.5621,1.2446 -0.762,-0.0127 -1.1811,-0.6223 -1.0668,-1.4097 z"
         style="font-weight:bold;-inkscape-font-specification:'Jost* Bold Italic'"
         id="path448" />
      <path
         d="m 72.997461,13.459879 c 1.4859,0 2.5654,-0.6096 3.1877,-1.7272 l -1.6637,-0.4191 c -0.3175,0.4699 -0.8001,0.762 -1.4351,0.762 -0.7366,0 -1.143,-0.4953 -1.1303,-1.2573 h 4.3688 c 0.0889,-0.2413 0.1397,-0.5842 0.1397,-0.8635999 0,-1.6129 -0.9525,-2.5907999 -2.7178,-2.5907999 -2.1717,0 -3.683,1.4985999 -3.683,3.4289998 0,1.6637 1.1557,2.667 2.9337,2.667 z m 0.5715,-4.8132999 c 0.6477,0 0.9398,0.4064 0.9652,1.1049 h -2.3749 c 0.254,-0.6985 0.7112,-1.1049 1.4097,-1.1049 z"
         style="font-weight:bold;-inkscape-font-specification:'Jost* Bold Italic'"
         id="path450" />
    </g>
  </g>
</svg>
