<svg xmlns="http://www.w3.org/2000/svg" width="378" height="88" viewBox="0 0 378 88" fill="none">
<path fill-rule="evenodd" clip-rule="evenodd" d="M44 0C7.766 0 0 7.766 0 44C0 80.234 7.766 88 44 88C80.234 88 88 80.234 88 44C88 7.766 80.234 0 44 0ZM39.1171 32.53C39.6448 32.8121 40 33.4016 40 34C40 36.2091 41.7909 38 44 38C46.2091 38 48 36.2091 48 34C48 33.4016 48.3552 32.8121 48.8829 32.53C50.1428 31.8566 51 30.5284 51 29C51 26.7909 49.2091 25 47 25C46.6142 25 46.2411 25.0546 45.8881 25.1566C44.7322 25.4904 43.2678 25.4904 42.1119 25.1566C41.7589 25.0546 41.3858 25 41 25C38.7909 25 37 26.7909 37 29C37 30.5284 37.8572 31.8566 39.1171 32.53ZM40.6174 37.6822C40.4565 37.7954 40.3289 37.9561 40.2566 38.1489L39.2486 40.837C39.0877 41.266 39.079 41.7371 39.2238 42.1717L40.8506 47.0521C40.9488 47.3466 41.1133 47.6174 41.374 47.786C41.8309 48.0815 42.7062 48.5 43.9999 48.5C45.2937 48.5 46.169 48.0815 46.6259 47.786C46.8866 47.6174 47.0511 47.3466 47.1492 47.0521L48.776 42.1717C48.9209 41.7371 48.9122 41.266 48.7513 40.837L47.7433 38.1489C47.671 37.9561 47.5434 37.7954 47.3825 37.6822C46.4922 38.5005 45.3044 39 43.9999 39C42.6955 39 41.5077 38.5005 40.6174 37.6822ZM42 60L41.0211 48.7423C41.6348 49.0994 42.6312 49.5 44 49.5C45.3684 49.5 46.365 49.0996 46.979 48.7423L46 60C46 60 45.5 60.5 44 60.5C42.5 60.5 42 60 42 60ZM42.5 68L42.0111 61.1559C42.0291 61.1635 42.0474 61.171 42.0662 61.1785C42.5095 61.3558 43.1373 61.5 44 61.5C44.8628 61.5 45.4906 61.3558 45.9339 61.1785C45.9526 61.171 45.9709 61.1635 45.9888 61.156L45.5 68C45.5 68 45.25 69 44 69C42.75 69 42.5 68 42.5 68ZM18.4999 40H38.4C37.6448 41.2587 37.9828 42.1357 38.3163 43.001L38.3164 43.0012L38.3164 43.0013L38.3165 43.0014L38.3165 43.0015L38.3166 43.0017C38.3804 43.1673 38.4441 43.3326 38.4999 43.5L19.817 48.8504C18.6241 49.1865 17.3473 48.7543 16.6036 47.7628L15.4279 46.1951C14.7461 45.2861 14.6364 44.0698 15.1446 43.0535L15.8422 41.6582C16.3462 40.6501 17.3729 40.0096 18.4999 40ZM16 38.4663L38.7499 39C38.7499 39 39.1093 38.1012 39.2499 37.5C39.2981 37.294 39.349 37.0881 39.3922 36.9172C39.4529 36.6771 39.3398 36.4307 39.1124 36.3324C36.4624 35.187 21.0442 28.5249 18.4745 27.4663C17.4762 27.0394 16.3252 27.1853 15.4649 27.8476L13.17 29.6144C12.4171 30.1941 11.9975 31.0823 12 32C12.0008 32.2913 12.0441 32.5855 12.1328 32.8738L13.2451 36.4663C13.6189 37.6811 14.7301 38.4133 16 38.4663ZM69.5 40H49.6C50.3552 41.2587 50.0172 42.1357 49.6836 43.001L49.6836 43.0012L49.6835 43.0013L49.6835 43.0014C49.6196 43.1672 49.5559 43.3325 49.5 43.5L68.1829 48.8504C69.3759 49.1865 70.6527 48.7543 71.3963 47.7628L72.5721 46.1951C73.2539 45.2861 73.3636 44.0698 72.8554 43.0535L72.1578 41.6583C71.6537 40.6501 70.6271 40.0096 69.5 40ZM72 38.4663L49.25 39C49.25 39 48.8907 38.1012 48.75 37.5C48.7018 37.294 48.6509 37.0881 48.6077 36.9173C48.547 36.6771 48.6602 36.4307 48.8875 36.3325C51.5376 35.187 66.9558 28.5249 69.5255 27.4663C70.5238 27.0394 71.6748 27.1853 72.5351 27.8476L74.83 29.6144C75.5829 30.1941 76.0025 31.0823 76 32C75.9992 32.2913 75.9559 32.5855 75.8672 32.8738L74.7549 36.4663C74.3811 37.6811 73.2699 38.4133 72 38.4663Z" fill="#ffffff"/>
<path d="M317.512 19.922C317.072 21.198 316.852 22.562 316.852 24.014V29.03H311.77V34.706H316.852V63.746H323.716V34.706H330.184V29.03H323.716V24.278C323.716 23.266 323.958 22.496 324.442 21.968C324.97 21.44 325.762 21.176 326.818 21.176H330.184L331.684 16.358C331.244 16.182 330.738 16.028 330.166 15.896C329.594 15.764 328.978 15.676 328.318 15.632C327.702 15.544 327.086 15.5 326.47 15.5C324.314 15.5 321.142 15.918 319.954 16.754C318.81 17.59 317.996 18.646 317.512 19.922Z" fill="#ffffff"/>
<path fill-rule="evenodd" clip-rule="evenodd" d="M137.436 61.37C134.136 62.954 130.154 63.746 125.49 63.746H108V18.47H125.49C130.154 18.47 134.136 19.284 137.436 20.912C140.736 22.496 143.266 24.96 145.026 28.304C146.83 31.604 147.732 35.872 147.732 41.108C147.732 46.3 146.83 50.568 145.026 53.912C143.266 57.256 140.736 59.742 137.436 61.37ZM131.628 25.73C129.824 25.114 127.756 24.806 125.424 24.806H115.392V57.41H125.424C127.756 57.41 129.824 57.102 131.628 56.486C133.476 55.87 135.016 54.924 136.248 53.648C137.524 52.372 138.47 50.766 139.086 48.83C139.746 46.85 140.076 44.518 140.076 41.834V40.448C140.076 37.72 139.746 35.388 139.086 33.452C138.47 31.472 137.524 29.844 136.248 28.568C135.016 27.292 133.476 26.346 131.628 25.73Z" fill="#ffffff"/>
<path d="M158.826 40.976C158.518 42.208 158.364 43.594 158.364 45.134V63.746H151.5V29.03H157.176L157.77 34.64H158.166C158.562 33.54 159.068 32.506 159.684 31.538C160.344 30.57 161.18 29.778 162.192 29.162C163.248 28.546 164.524 28.238 166.02 28.238C166.724 28.238 167.34 28.304 167.868 28.436C168.44 28.568 168.88 28.678 169.188 28.766V35.234H166.878C165.47 35.234 164.216 35.454 163.116 35.894C162.06 36.334 161.158 36.994 160.41 37.874C159.706 38.71 159.178 39.744 158.826 40.976Z" fill="#ffffff"/>
<path fill-rule="evenodd" clip-rule="evenodd" d="M178.765 64.142C180.041 64.406 181.229 64.538 182.329 64.538C184.133 64.538 185.761 64.318 187.213 63.878C188.665 63.482 189.941 62.91 191.041 62.162C192.185 61.37 193.153 60.468 193.945 59.456H194.341V64.538L200.61 64.532L200.611 38.93C200.611 36.686 200.105 34.772 199.093 33.188C198.081 31.604 196.563 30.394 194.539 29.558C192.559 28.678 190.073 28.238 187.081 28.238C184.309 28.238 181.867 28.612 179.755 29.36C177.643 30.108 175.993 31.208 174.805 32.66C173.661 34.068 173.089 35.806 173.089 37.874V38.666C173.089 38.886 173.111 39.106 173.155 39.326H179.755V38.336C179.755 37.544 179.953 36.818 180.349 36.158C180.789 35.454 181.515 34.882 182.527 34.442C183.583 33.958 185.035 33.716 186.883 33.716C188.731 33.716 190.139 33.958 191.107 34.442C192.119 34.926 192.801 35.608 193.153 36.488C193.549 37.368 193.747 38.38 193.747 39.524V42.956C190.491 42.956 187.477 43.132 184.705 43.484C181.977 43.836 179.623 44.452 177.643 45.332C175.663 46.212 174.123 47.422 173.023 48.962C171.923 50.502 171.373 52.46 171.373 54.836C171.373 56.86 171.725 58.51 172.429 59.786C173.133 61.018 174.035 61.986 175.135 62.69C176.279 63.394 177.489 63.878 178.765 64.142ZM188.005 58.268C186.861 58.664 185.607 58.862 184.243 58.862C183.055 58.862 182.021 58.686 181.141 58.334C180.261 57.982 179.601 57.476 179.161 56.816C178.721 56.112 178.501 55.254 178.501 54.242C178.501 52.57 179.139 51.272 180.415 50.348C181.691 49.38 183.473 48.72 185.761 48.368C188.049 48.016 190.711 47.84 193.747 47.84V50.15C193.747 51.426 193.505 52.614 193.021 53.714C192.537 54.77 191.877 55.694 191.041 56.486C190.205 57.234 189.193 57.828 188.005 58.268Z" fill="#ffffff"/>
<path fill-rule="evenodd" clip-rule="evenodd" d="M212.646 75.758C211.062 75.758 209.566 75.428 208.158 74.768C206.794 74.108 205.694 73.162 204.858 71.93C204.022 70.698 203.604 69.202 203.604 67.442C203.604 65.506 204.132 63.944 205.188 62.756C206.288 61.524 207.564 60.6 209.016 59.984C207.96 59.5 207.102 58.796 206.442 57.872C205.826 56.948 205.518 55.892 205.518 54.704C205.518 53.076 206.112 51.756 207.3 50.744C208.488 49.732 209.874 49.072 211.458 48.764C209.918 47.752 208.708 46.476 207.828 44.936C206.992 43.396 206.574 41.658 206.574 39.722C206.574 37.39 207.124 35.388 208.224 33.716C209.324 32 210.952 30.658 213.108 29.69C215.308 28.722 217.97 28.238 221.094 28.238H240L238.5 32.492H233.062C233.823 33.3426 234.41 34.3006 234.822 35.366C235.394 36.686 235.68 38.138 235.68 39.722C235.68 42.01 235.152 44.012 234.096 45.728C233.04 47.444 231.434 48.786 229.278 49.754C227.166 50.722 224.548 51.206 221.424 51.206H216.012C214.956 51.206 214.098 51.426 213.438 51.866C212.822 52.306 212.514 52.966 212.514 53.846C212.514 54.594 212.822 55.21 213.438 55.694C214.054 56.178 214.868 56.42 215.88 56.42H230.532C233.084 56.42 235.196 57.278 236.868 58.994C238.54 60.666 239.376 62.822 239.376 65.462C239.376 67.398 238.87 69.136 237.858 70.676C236.89 72.26 235.504 73.492 233.7 74.372C231.94 75.296 229.894 75.758 227.562 75.758H212.646ZM211.722 69.488C212.558 70.28 213.614 70.676 214.89 70.676H227.496C228.42 70.676 229.256 70.5 230.004 70.148C230.752 69.796 231.346 69.29 231.786 68.63C232.226 68.014 232.446 67.31 232.446 66.518C232.446 65.198 232.028 64.164 231.192 63.416C230.4 62.668 229.41 62.294 228.222 62.294H214.89C213.658 62.294 212.624 62.712 211.788 63.548C210.952 64.34 210.534 65.33 210.534 66.518C210.534 67.75 210.93 68.74 211.722 69.488ZM221.16 46.256C223.756 46.256 225.692 45.684 226.968 44.54C228.244 43.352 228.882 41.746 228.882 39.722C228.882 37.654 228.244 36.07 226.968 34.97C225.692 33.826 223.756 33.254 221.16 33.254C218.564 33.254 216.628 33.826 215.352 34.97C214.076 36.07 213.438 37.654 213.438 39.722C213.438 41.042 213.702 42.208 214.23 43.22C214.802 44.188 215.66 44.936 216.804 45.464C217.992 45.992 219.444 46.256 221.16 46.256Z" fill="#ffffff"/>
<path fill-rule="evenodd" clip-rule="evenodd" d="M248.208 62.624C250.716 63.9 253.774 64.538 257.382 64.538C261.078 64.538 264.158 63.9 266.622 62.624C269.086 61.304 270.934 59.302 272.166 56.618C273.442 53.934 274.08 50.524 274.08 46.388C274.08 42.208 273.442 38.798 272.166 36.158C270.934 33.474 269.086 31.494 266.622 30.218C264.158 28.898 261.078 28.238 257.382 28.238C253.774 28.238 250.716 28.898 248.208 30.218C245.744 31.494 243.874 33.474 242.598 36.158C241.366 38.798 240.75 42.208 240.75 46.388C240.75 50.524 241.366 53.934 242.598 56.618C243.874 59.302 245.744 61.304 248.208 62.624ZM262.794 57.608C261.386 58.444 259.582 58.862 257.382 58.862C255.226 58.862 253.444 58.444 252.036 57.608C250.628 56.728 249.572 55.408 248.868 53.648C248.208 51.888 247.878 49.666 247.878 46.982V45.794C247.878 43.11 248.208 40.888 248.868 39.128C249.572 37.368 250.628 36.07 252.036 35.234C253.444 34.354 255.226 33.914 257.382 33.914C259.582 33.914 261.386 34.354 262.794 35.234C264.202 36.07 265.236 37.368 265.896 39.128C266.6 40.888 266.952 43.11 266.952 45.794V46.982C266.952 49.666 266.6 51.888 265.896 53.648C265.236 55.408 264.202 56.728 262.794 57.608Z" fill="#ffffff"/>
<path d="M287.052 38.6C286.26 39.964 285.864 41.57 285.864 43.418V63.746H279V29.03H284.676L285.27 33.98H285.732C286.568 32.704 287.558 31.648 288.702 30.812C289.846 29.976 291.1 29.338 292.464 28.898C293.872 28.458 295.412 28.238 297.084 28.238C299.284 28.238 301.22 28.634 302.892 29.426C304.564 30.174 305.862 31.406 306.786 33.122C307.754 34.838 308.238 37.148 308.238 40.052V63.746H301.374V41.108C301.374 39.788 301.198 38.688 300.846 37.808C300.538 36.928 300.076 36.224 299.46 35.696C298.844 35.168 298.118 34.794 297.282 34.574C296.446 34.354 295.522 34.244 294.51 34.244C292.926 34.244 291.474 34.64 290.154 35.432C288.878 36.18 287.844 37.236 287.052 38.6Z" fill="#ffffff"/>
<path d="M378 28.9665L362.16 75.9285H355.163C355.163 75.9285 358.53 64.9117 359.058 63.4597L345.132 28.9665H352.326L359.058 44.7585C359.366 45.5505 359.696 46.5405 360.048 47.7285C360.444 48.9165 360.818 50.1265 361.17 51.3585C361.566 52.5905 361.896 53.6905 362.16 54.6585H362.49C362.71 53.9985 362.93 53.2505 363.15 52.4145C363.414 51.5345 363.678 50.6325 363.942 49.7085C364.206 48.7845 364.47 47.9045 364.734 47.0685C364.998 46.1885 365.218 45.4405 365.394 44.8245L371.004 28.9665H378Z" fill="#ffffff"/>
<path d="M334.672 16.028V63.746H341.536V16.028H334.672Z" fill="#ffffff"/>
</svg>
