<svg width="189" height="44" viewBox="0 0 189 44" fill="none" xmlns="http://www.w3.org/2000/svg">
<path fill-rule="evenodd" clip-rule="evenodd" d="M22 0C3.883 0 0 3.883 0 22C0 40.117 3.883 44 22 44C40.117 44 44 40.117 44 22C44 3.883 40.117 0 22 0ZM19.5585 16.265C19.8224 16.406 20 16.7008 20 17C20 18.1046 20.8954 19 22 19C23.1046 19 24 18.1046 24 17C24 16.7008 24.1776 16.406 24.4414 16.265C25.0714 15.9283 25.5 15.2642 25.5 14.5C25.5 13.3954 24.6046 12.5 23.5 12.5C23.3071 12.5 23.1205 12.5273 22.944 12.5783C22.3661 12.7452 21.6339 12.7452 21.056 12.5783C20.8794 12.5273 20.6929 12.5 20.5 12.5C19.3954 12.5 18.5 13.3954 18.5 14.5C18.5 15.2642 18.9286 15.9283 19.5585 16.265ZM20.3087 18.8411C20.2282 18.8977 20.1644 18.978 20.1283 19.0744L19.6243 20.4185C19.5438 20.633 19.5395 20.8686 19.6119 21.0859L20.4253 23.526C20.4744 23.6733 20.5566 23.8087 20.687 23.893C20.9154 24.0408 21.3531 24.25 22 24.25C22.6468 24.25 23.0845 24.0408 23.3129 23.893C23.4433 23.8087 23.5255 23.6733 23.5746 23.526L24.388 21.0859C24.4604 20.8686 24.4561 20.633 24.3756 20.4185L23.8716 19.0744C23.8355 18.978 23.7717 18.8977 23.6912 18.8411C23.2461 19.2502 22.6522 19.5 22 19.5C21.3477 19.5 20.7538 19.2502 20.3087 18.8411ZM21 30L20.5105 24.3712C20.8174 24.5497 21.3156 24.75 22 24.75C22.6842 24.75 23.1825 24.5498 23.4895 24.3711L23 30C23 30 22.75 30.25 22 30.25C21.25 30.25 21 30 21 30ZM21.25 34L21.0055 30.5779L21.0331 30.5892C21.2547 30.6779 21.5686 30.75 22 30.75C22.4314 30.75 22.7453 30.6779 22.967 30.5892L22.9944 30.578L22.75 34C22.75 34 22.625 34.5 22 34.5C21.375 34.5 21.25 34 21.25 34ZM9.24995 20H19.2C18.8224 20.6294 18.9914 21.0678 19.1582 21.5005L19.1582 21.5005L19.1582 21.5006L19.1582 21.5006L19.1582 21.5006L19.1582 21.5006C19.1901 21.5835 19.222 21.6662 19.25 21.75L9.90851 24.4252C9.31202 24.5932 8.67362 24.3772 8.3018 23.8814L7.71391 23.0976C7.37302 22.643 7.31818 22.0349 7.57227 21.5267L7.92108 20.8291C8.17311 20.3251 8.68641 20.0048 9.24995 20ZM7.99998 19.2331L19.375 19.5C19.375 19.5 19.5546 19.0506 19.625 18.75C19.6491 18.647 19.6745 18.5441 19.6961 18.4586C19.7264 18.3386 19.6699 18.2154 19.5562 18.1662C18.2312 17.5935 10.5221 14.2625 9.23721 13.7331C8.73807 13.5197 8.16257 13.5926 7.73242 13.9238L6.58499 14.8072C6.20854 15.097 5.99872 15.5412 5.99998 16C6.00037 16.1456 6.02204 16.2928 6.06639 16.4369L6.62254 18.2331C6.80943 18.8405 7.36503 19.2067 7.99998 19.2331ZM34.75 20H24.8C25.1776 20.6294 25.0086 21.0679 24.8418 21.5005L24.8418 21.5005L24.8418 21.5006L24.8418 21.5006C24.8098 21.5835 24.7779 21.6662 24.75 21.75L34.0914 24.4252C34.6879 24.5932 35.3263 24.3772 35.6982 23.8814L36.286 23.0976C36.6269 22.643 36.6818 22.0349 36.4277 21.5267L36.0789 20.8291C35.8268 20.3251 35.3135 20.0048 34.75 20ZM36 19.2331L24.625 19.5C24.625 19.5 24.4453 19.0506 24.375 18.75C24.3509 18.647 24.3255 18.5441 24.3039 18.4586C24.2735 18.3386 24.3301 18.2154 24.4438 18.1662C25.7688 17.5935 33.4779 14.2625 34.7627 13.7331C35.2619 13.5197 35.8374 13.5926 36.2675 13.9238L37.415 14.8072C37.7914 15.097 38.0012 15.5412 38 16C37.9996 16.1456 37.9779 16.2928 37.9336 16.4369L37.3774 18.2331C37.1905 18.8405 36.6349 19.2067 36 19.2331Z" fill="black"/>
<path d="M158.756 9.461C158.536 10.099 158.426 10.781 158.426 11.507V14.015H155.885V16.853H158.426V31.373H161.858V16.853H165.092V14.015H161.858V11.639C161.858 11.133 161.979 10.748 162.221 10.484C162.485 10.22 162.881 10.088 163.409 10.088H165.092L165.842 7.679C165.622 7.591 165.369 7.514 165.083 7.448C164.797 7.382 164.489 7.338 164.159 7.316C163.851 7.272 163.543 7.25 163.235 7.25C162.157 7.25 160.571 7.459 159.977 7.877C159.405 8.295 158.998 8.823 158.756 9.461Z" fill="black"/>
<path fill-rule="evenodd" clip-rule="evenodd" d="M68.718 30.185C67.068 30.977 65.077 31.373 62.745 31.373H54V8.735H62.745C65.077 8.735 67.068 9.142 68.718 9.956C70.368 10.748 71.633 11.98 72.513 13.652C73.415 15.302 73.866 17.436 73.866 20.054C73.866 22.65 73.415 24.784 72.513 26.456C71.633 28.128 70.368 29.371 68.718 30.185ZM65.814 12.365C64.912 12.057 63.878 11.903 62.712 11.903H57.696V28.205H62.712C63.878 28.205 64.912 28.051 65.814 27.743C66.738 27.435 67.508 26.962 68.124 26.324C68.762 25.686 69.235 24.883 69.543 23.915C69.873 22.925 70.038 21.759 70.038 20.417V19.724C70.038 18.36 69.873 17.194 69.543 16.226C69.235 15.236 68.762 14.422 68.124 13.784C67.508 13.146 66.738 12.673 65.814 12.365Z" fill="black"/>
<path d="M79.413 19.988C79.259 20.604 79.182 21.297 79.182 22.067V31.373H75.75V14.015H78.588L78.885 16.82H79.083C79.281 16.27 79.534 15.753 79.842 15.269C80.172 14.785 80.59 14.389 81.096 14.081C81.624 13.773 82.262 13.619 83.01 13.619C83.362 13.619 83.67 13.652 83.934 13.718C84.22 13.784 84.44 13.839 84.594 13.883V17.117H83.439C82.735 17.117 82.108 17.227 81.558 17.447C81.03 17.667 80.579 17.997 80.205 18.437C79.853 18.855 79.589 19.372 79.413 19.988Z" fill="black"/>
<path fill-rule="evenodd" clip-rule="evenodd" d="M89.3826 31.571C90.0206 31.703 90.6146 31.769 91.1646 31.769C92.0666 31.769 92.8806 31.659 93.6066 31.439C94.3326 31.241 94.9706 30.955 95.5206 30.581C96.0926 30.185 96.5766 29.734 96.9726 29.228H97.1706V31.769L100.305 31.766L100.306 18.965C100.306 17.843 100.053 16.886 99.5466 16.094C99.0406 15.302 98.2816 14.697 97.2696 14.279C96.2796 13.839 95.0366 13.619 93.5406 13.619C92.1546 13.619 90.9336 13.806 89.8776 14.18C88.8216 14.554 87.9966 15.104 87.4026 15.83C86.8306 16.534 86.5446 17.403 86.5446 18.437V18.833C86.5446 18.943 86.5556 19.053 86.5776 19.163H89.8776V18.668C89.8776 18.272 89.9766 17.909 90.1746 17.579C90.3946 17.227 90.7576 16.941 91.2636 16.721C91.7916 16.479 92.5176 16.358 93.4416 16.358C94.3656 16.358 95.0696 16.479 95.5536 16.721C96.0596 16.963 96.4006 17.304 96.5766 17.744C96.7746 18.184 96.8736 18.69 96.8736 19.262V20.978C95.2456 20.978 93.7386 21.066 92.3526 21.242C90.9886 21.418 89.8116 21.726 88.8216 22.166C87.8316 22.606 87.0616 23.211 86.5116 23.981C85.9616 24.751 85.6866 25.73 85.6866 26.918C85.6866 27.93 85.8626 28.755 86.2146 29.393C86.5666 30.009 87.0176 30.493 87.5676 30.845C88.1396 31.197 88.7446 31.439 89.3826 31.571ZM94.0026 28.634C93.4306 28.832 92.8036 28.931 92.1216 28.931C91.5276 28.931 91.0106 28.843 90.5706 28.667C90.1306 28.491 89.8006 28.238 89.5806 27.908C89.3606 27.556 89.2506 27.127 89.2506 26.621C89.2506 25.785 89.5696 25.136 90.2076 24.674C90.8456 24.19 91.7366 23.86 92.8806 23.684C94.0246 23.508 95.3556 23.42 96.8736 23.42V24.575C96.8736 25.213 96.7526 25.807 96.5106 26.357C96.2686 26.885 95.9386 27.347 95.5206 27.743C95.1026 28.117 94.5966 28.414 94.0026 28.634Z" fill="black"/>
<path fill-rule="evenodd" clip-rule="evenodd" d="M106.323 37.379C105.531 37.379 104.783 37.214 104.079 36.884C103.397 36.554 102.847 36.081 102.429 35.465C102.011 34.849 101.802 34.101 101.802 33.221C101.802 32.253 102.066 31.472 102.594 30.878C103.144 30.262 103.782 29.8 104.508 29.492C103.98 29.25 103.551 28.898 103.221 28.436C102.913 27.974 102.759 27.446 102.759 26.852C102.759 26.038 103.056 25.378 103.65 24.872C104.244 24.366 104.937 24.036 105.729 23.882C104.959 23.376 104.354 22.738 103.914 21.968C103.496 21.198 103.287 20.329 103.287 19.361C103.287 18.195 103.562 17.194 104.112 16.358C104.662 15.5 105.476 14.829 106.554 14.345C107.654 13.861 108.985 13.619 110.547 13.619H120L119.25 15.746H116.531C116.912 16.1713 117.205 16.6503 117.411 17.183C117.697 17.843 117.84 18.569 117.84 19.361C117.84 20.505 117.576 21.506 117.048 22.364C116.52 23.222 115.717 23.893 114.639 24.377C113.583 24.861 112.274 25.103 110.712 25.103H108.006C107.478 25.103 107.049 25.213 106.719 25.433C106.411 25.653 106.257 25.983 106.257 26.423C106.257 26.797 106.411 27.105 106.719 27.347C107.027 27.589 107.434 27.71 107.94 27.71H115.266C116.542 27.71 117.598 28.139 118.434 28.997C119.27 29.833 119.688 30.911 119.688 32.231C119.688 33.199 119.435 34.068 118.929 34.838C118.445 35.63 117.752 36.246 116.85 36.686C115.97 37.148 114.947 37.379 113.781 37.379H106.323ZM105.861 34.244C106.279 34.64 106.807 34.838 107.445 34.838H113.748C114.21 34.838 114.628 34.75 115.002 34.574C115.376 34.398 115.673 34.145 115.893 33.815C116.113 33.507 116.223 33.155 116.223 32.759C116.223 32.099 116.014 31.582 115.596 31.208C115.2 30.834 114.705 30.647 114.111 30.647H107.445C106.829 30.647 106.312 30.856 105.894 31.274C105.476 31.67 105.267 32.165 105.267 32.759C105.267 33.375 105.465 33.87 105.861 34.244ZM110.58 22.628C111.878 22.628 112.846 22.342 113.484 21.77C114.122 21.176 114.441 20.373 114.441 19.361C114.441 18.327 114.122 17.535 113.484 16.985C112.846 16.413 111.878 16.127 110.58 16.127C109.282 16.127 108.314 16.413 107.676 16.985C107.038 17.535 106.719 18.327 106.719 19.361C106.719 20.021 106.851 20.604 107.115 21.11C107.401 21.594 107.83 21.968 108.402 22.232C108.996 22.496 109.722 22.628 110.58 22.628Z" fill="black"/>
<path fill-rule="evenodd" clip-rule="evenodd" d="M124.104 30.812C125.358 31.45 126.887 31.769 128.691 31.769C130.539 31.769 132.079 31.45 133.311 30.812C134.543 30.152 135.467 29.151 136.083 27.809C136.721 26.467 137.04 24.762 137.04 22.694C137.04 20.604 136.721 18.899 136.083 17.579C135.467 16.237 134.543 15.247 133.311 14.609C132.079 13.949 130.539 13.619 128.691 13.619C126.887 13.619 125.358 13.949 124.104 14.609C122.872 15.247 121.937 16.237 121.299 17.579C120.683 18.899 120.375 20.604 120.375 22.694C120.375 24.762 120.683 26.467 121.299 27.809C121.937 29.151 122.872 30.152 124.104 30.812ZM131.397 28.304C130.693 28.722 129.791 28.931 128.691 28.931C127.613 28.931 126.722 28.722 126.018 28.304C125.314 27.864 124.786 27.204 124.434 26.324C124.104 25.444 123.939 24.333 123.939 22.991V22.397C123.939 21.055 124.104 19.944 124.434 19.064C124.786 18.184 125.314 17.535 126.018 17.117C126.722 16.677 127.613 16.457 128.691 16.457C129.791 16.457 130.693 16.677 131.397 17.117C132.101 17.535 132.618 18.184 132.948 19.064C133.3 19.944 133.476 21.055 133.476 22.397V22.991C133.476 24.333 133.3 25.444 132.948 26.324C132.618 27.204 132.101 27.864 131.397 28.304Z" fill="black"/>
<path d="M143.526 18.8C143.13 19.482 142.932 20.285 142.932 21.209V31.373H139.5V14.015H142.338L142.635 16.49H142.866C143.284 15.852 143.779 15.324 144.351 14.906C144.923 14.488 145.55 14.169 146.232 13.949C146.936 13.729 147.706 13.619 148.542 13.619C149.642 13.619 150.61 13.817 151.446 14.213C152.282 14.587 152.931 15.203 153.393 16.061C153.877 16.919 154.119 18.074 154.119 19.526V31.373H150.687V20.054C150.687 19.394 150.599 18.844 150.423 18.404C150.269 17.964 150.038 17.612 149.73 17.348C149.422 17.084 149.059 16.897 148.641 16.787C148.223 16.677 147.761 16.622 147.255 16.622C146.463 16.622 145.737 16.82 145.077 17.216C144.439 17.59 143.922 18.118 143.526 18.8Z" fill="black"/>
<path d="M189 13.9832L181.08 37.4642H177.581C177.581 37.4642 179.265 31.9559 179.529 31.2299L172.566 13.9832H176.163L179.529 21.8792C179.683 22.2752 179.848 22.7702 180.024 23.3642C180.222 23.9582 180.409 24.5632 180.585 25.1792C180.783 25.7952 180.948 26.3452 181.08 26.8292H181.245C181.355 26.4992 181.465 26.1252 181.575 25.7072C181.707 25.2672 181.839 24.8162 181.971 24.3542C182.103 23.8922 182.235 23.4522 182.367 23.0342C182.499 22.5942 182.609 22.2202 182.697 21.9122L185.502 13.9832H189Z" fill="black"/>
<path d="M167.336 7.514V31.373H170.768V7.514H167.336Z" fill="black"/>
</svg>
