<?xml version="1.0" encoding="utf-8"?>
<!-- Generator: Adobe Illustrator 28.1.0, SVG Export Plug-In . SVG Version: 6.00 Build 0)  -->
<svg version="1.1" id="Layer_1" xmlns="http://www.w3.org/2000/svg" xmlns:xlink="http://www.w3.org/1999/xlink" x="0px" y="0px"
	 viewBox="0 0 147 30" style="enable-background:new 0 0 147 30;" xml:space="preserve">
<style type="text/css">
	.st0{fill:#FFFFFF;}
</style>
<path class="st0" d="M8.6,8.6L8.6,8.6L8.6,8.6l0,12.9v0h0h10.9c1.1,0,2,0.9,2,2h0h0c0-1.1,0.9-2,2-2v0v0c-1.1,0-2-0.9-2-2v-8.9
	c0-1.1,0.9-2,2-2h0.1v0v0c-1.1,0-2-0.9-2-2h0h0v0.1c0,1.1-0.9,2-2,2H8.6z M30.1,22.6c0,4.1-3.4,7.5-7.5,7.5H0V0h22.6
	c4.1,0,7.5,3.4,7.5,7.5V22.6z"/>
<g>
	<path class="st0" d="M45,18.2v2.6h-7.5V9h7.4v2.6h-4.7v2h4.2v2.6h-4.2v2.1H45z"/>
	<path class="st0" d="M59.3,20.9l-2-3.4l-2,3.4h-3.1l3.6-6.1L52.3,9h3.1l1.8,3.1L59.1,9h3.1l-3.4,5.8l3.6,6.1H59.3z"/>
	<path class="st0" d="M78.8,13c0,2.3-1.8,4.1-4.2,4.1h-1.8v3.7h-2.7V9h4.5C76.9,9,78.8,10.8,78.8,13z M76,13c0-0.9-0.6-1.5-1.4-1.5
		h-1.8v3.1h1.8C75.4,14.6,76,13.9,76,13z"/>
	<path class="st0" d="M93.6,18.2v2.6h-7V9h2.7v9.3H93.6z"/>
	<path class="st0" d="M100.2,14.9c0-3.5,2.8-6.2,6.2-6.2s6.2,2.7,6.2,6.2s-2.8,6.2-6.2,6.2S100.2,18.4,100.2,14.9z M109.8,14.9
		c0-2.1-1.5-3.5-3.5-3.5s-3.5,1.4-3.5,3.5s1.5,3.5,3.5,3.5S109.8,17,109.8,14.9z"/>
	<path class="st0" d="M124.6,17h-1.3v3.9h-2.7V9h4.8c2.3,0,4.1,1.8,4.1,4.1c0,1.5-0.9,2.8-2.2,3.5l2.5,4.4h-2.9L124.6,17z
		 M123.3,14.6h2c0.7,0,1.4-0.7,1.4-1.5c0-0.9-0.6-1.5-1.4-1.5h-2V14.6z"/>
	<path class="st0" d="M145,18.2v2.6h-7.5V9h7.4v2.6h-4.7v2h4.2v2.6h-4.2v2.1H145z"/>
</g>
</svg>
